<svg xmlns="http://www.w3.org/2000/svg" viewBox="0 0 30 20"><defs><style>.cls-1{fill:#222}</style></defs><title>bl1_icon_attention</title><g id="Слой_2" data-name="Слой 2"><path class="cls-1" d="M30 3.34a.49.49 0 0 0-.48-.34h-4.4a3.45 3.45 0 0 0-3.36-3H3.39A3.47 3.47 0 0 0 0 3.53v12.94A3.47 3.47 0 0 0 3.39 20h18.37a3.47 3.47 0 0 0 3.39-3.53V8.78l4.71-4.9a.52.52 0 0 0 .14-.35.53.53 0 0 0 0-.19zm-5.68 4.88a.52.52 0 0 0-.14.36v7.9A2.48 2.48 0 0 1 21.76 19H3.39A2.48 2.48 0 0 1 1 16.47V3.53A2.48 2.48 0 0 1 3.39 1h18.37a2.48 2.48 0 0 1 2.42 2.52.5.5 0 0 0 .49.5h3.68zM13.64 11L14 8.24V6h-1.9v2.24l.32 2.8zm-.63.83a1.07 1.07 0 1 0 1 1.06A1 1 0 0 0 13 11.87z" id="Слой_1-2" data-name="Слой 1"/></g></svg>