<svg xmlns="http://www.w3.org/2000/svg" viewBox="0 0 38 50"><defs><style>.cls-1{fill:#222}</style></defs><title>bl7_icon</title><g id="Слой_2" data-name="Слой 2"><path class="cls-1" d="M37 3.13h-9.64V1a1 1 0 0 0-1-1H11.68a1 1 0 0 0-1 1v7a1 1 0 0 0 1 1h14.65a1 1 0 0 0 1-1V5.14h8.58V48H2.06V5.14h4.17a1 1 0 1 0 0-2H1a1 1 0 0 0-1 1V49a1 1 0 0 0 1 1h36a1 1 0 0 0 1-1V4.13a1 1 0 0 0-1-1zM25.3 7H12.71V2H25.3zm-12.59 6.4a1 1 0 0 0-1-1h-6a1 1 0 0 0-1 1v5.86a1 1 0 0 0 1 1h6a1 1 0 0 0 1-1zm-2.06 4.85H6.7V14.4h3.95zm5.15-.92h14.76a1 1 0 1 0 0-2H15.8a1 1 0 1 0 0 2zm-3.09 7.22a1 1 0 0 0-1-1h-6a1 1 0 0 0-1 1v5.86a1 1 0 0 0 1 1h6a1 1 0 0 0 1-1zm-2.06 4.85H6.7v-3.84h3.95zm5.15-.92h14.76a1 1 0 1 0 0-2H15.8a1 1 0 1 0 0 2zm-4.12 8.23a1 1 0 1 0 0-2h-6a1 1 0 0 0-1 1v5.86a1 1 0 0 0 1 1h6a1 1 0 1 0 0-2h-5v-3.86zm4.12 2.93h14.76a1 1 0 1 0 0-2H15.8a1 1 0 1 0 0 2z" id="Слой_1-2" data-name="Слой 1"/></g></svg>