<svg xmlns="http://www.w3.org/2000/svg" viewBox="0 0 30 20"><defs><style>.cls-1{fill:#222;}</style></defs><title>bl1_icon_attention</title><g id="Слой_2" data-name="Слой 2"><g id="Слой_1-2" data-name="Слой 1"><path class="cls-1" d="M30,3.34A.49.49,0,0,0,29.52,3h-4.4a3.45,3.45,0,0,0-3.36-3H3.39A3.47,3.47,0,0,0,0,3.53V16.47A3.47,3.47,0,0,0,3.39,20H21.76a3.47,3.47,0,0,0,3.39-3.53V8.78l4.71-4.9A.52.52,0,0,0,30,3.53.53.53,0,0,0,30,3.34ZM24.32,8.22a.52.52,0,0,0-.14.36v7.9A2.48,2.48,0,0,1,21.76,19H3.39A2.48,2.48,0,0,1,1,16.47V3.53A2.48,2.48,0,0,1,3.39,1H21.76a2.48,2.48,0,0,1,2.42,2.52.5.5,0,0,0,.49.5h3.68ZM13.64,11,14,8.24V6h-1.9V8.24l.32,2.8Zm-.63.83a1.07,1.07,0,1,0,1,1.06A1,1,0,0,0,13,11.87Z"/></g></g></svg>