<svg xmlns="http://www.w3.org/2000/svg" viewBox="0 0 38 50"><defs><style>.cls-1{fill:#222;}</style></defs><title>bl7_icon</title><g id="Слой_2" data-name="Слой 2"><g id="Слой_1-2" data-name="Слой 1"><path class="cls-1" d="M37,3.13H27.36V1a1,1,0,0,0-1-1H11.68a1,1,0,0,0-1,1V8a1,1,0,0,0,1,1H26.33a1,1,0,0,0,1-1V5.14h8.58V48H2.06V5.14H6.23a1,1,0,1,0,0-2H1a1,1,0,0,0-1,1V49a1,1,0,0,0,1,1H37a1,1,0,0,0,1-1V4.13A1,1,0,0,0,37,3.13ZM25.3,7H12.71V2H25.3ZM12.71,13.4a1,1,0,0,0-1-1h-6a1,1,0,0,0-1,1v5.86a1,1,0,0,0,1,1h6a1,1,0,0,0,1-1Zm-2.06,4.85H6.7V14.4h3.95Zm5.15-.92H30.56a1,1,0,1,0,0-2H15.8a1,1,0,1,0,0,2Zm-3.09,7.22a1,1,0,0,0-1-1h-6a1,1,0,0,0-1,1v5.86a1,1,0,0,0,1,1h6a1,1,0,0,0,1-1Zm-2.06,4.85H6.7V25.56h3.95Zm5.15-.92H30.56a1,1,0,1,0,0-2H15.8a1,1,0,1,0,0,2Zm-4.12,8.23a1,1,0,1,0,0-2h-6a1,1,0,0,0-1,1v5.86a1,1,0,0,0,1,1h6a1,1,0,1,0,0-2h-5V36.71Zm4.12,2.93H30.56a1,1,0,1,0,0-2H15.8a1,1,0,1,0,0,2Z"/></g></g></svg>